<svg width="22" height="21" viewBox="0 0 22 21" fill="none" xmlns="http://www.w3.org/2000/svg">
<path d="M12.7267 1.00523C12.7287 1.00305 12.7305 1.00133 12.7319 1H20.9556C20.957 1.00133 20.9588 1.00305 20.9608 1.00523C20.9773 1.02322 21 1.06294 21 1.125V8.625C21 8.68706 20.9773 8.72678 20.9608 8.74477C20.9588 8.74695 20.957 8.74867 20.9556 8.75H12.7319C12.7305 8.74867 12.7287 8.74695 12.7267 8.74477C12.7102 8.72678 12.6875 8.68706 12.6875 8.625V1.125C12.6875 1.06294 12.7102 1.02322 12.7267 1.00523ZM1.0392 1.00523C1.0412 1.00305 1.04296 1.00133 1.04444 1H9.26806C9.26954 1.00133 9.2713 1.00305 9.2733 1.00523C9.28979 1.02322 9.3125 1.06294 9.3125 1.125V8.625C9.3125 8.68706 9.28979 8.72678 9.2733 8.74477C9.2713 8.74695 9.26954 8.74867 9.26806 8.75H1.04444C1.04296 8.74867 1.0412 8.74695 1.0392 8.74477C1.02271 8.72678 1 8.68706 1 8.625V1.125C1 1.06294 1.02271 1.02322 1.0392 1.00523ZM1 19.875V12.375C1 12.3129 1.02271 12.2732 1.0392 12.2552C1.0412 12.253 1.04296 12.2513 1.04444 12.25H9.26806C9.26954 12.2513 9.2713 12.253 9.2733 12.2552C9.28979 12.2732 9.3125 12.3129 9.3125 12.375V19.875C9.3125 19.9371 9.28979 19.9768 9.2733 19.9948C9.2713 19.997 9.26954 19.9987 9.26806 20H1.04444C1.04296 19.9987 1.0412 19.997 1.0392 19.9948C1.02271 19.9768 1 19.9371 1 19.875ZM20.9608 19.9948C20.9588 19.997 20.957 19.9987 20.9556 20H12.7319C12.7305 19.9987 12.7287 19.997 12.7267 19.9948C12.7102 19.9768 12.6875 19.9371 12.6875 19.875V12.375C12.6875 12.3129 12.7102 12.2732 12.7267 12.2552C12.7287 12.253 12.7305 12.2513 12.7319 12.25H20.9556C20.957 12.2513 20.9588 12.253 20.9608 12.2552C20.9773 12.2732 21 12.3129 21 12.375V19.875C21 19.9371 20.9773 19.9768 20.9608 19.9948Z" stroke="#91919C" stroke-width="2"/>
</svg>
