<svg width="22" height="24" viewBox="0 0 22 24" fill="none" xmlns="http://www.w3.org/2000/svg">
<path d="M12.4925 1.59377L12.6671 1.77265L2.36639 11.8302C-0.419436 14.5502 -0.468444 18.9465 2.29911 21.6723L2.12368 21.8504L2.29911 21.6723C5.09143 24.4226 9.6681 24.4551 12.4958 21.6943L20.9451 13.4444L21.1198 13.6233L20.9452 13.4444C21.1463 13.248 21.1429 12.9379 20.9367 12.7454L21.1072 12.5627L20.9367 12.7454L19.8132 11.6971C19.6004 11.4985 19.255 11.5025 19.0474 11.7052L18.8727 11.5264L19.0474 11.7052L10.598 19.9552L10.4233 19.7763L10.598 19.9552C8.82746 21.6838 5.97215 21.6817 4.20487 19.941C2.42763 18.1906 2.45945 15.3315 4.26413 13.5694L4.43879 13.7482L4.26413 13.5694L14.5649 3.51185C15.6048 2.4965 17.2708 2.49704 18.3102 3.51185L18.1355 3.69073L18.3102 3.51185C19.3743 4.55083 19.3743 6.24347 18.3107 7.28201L18.3106 7.28209L9.33153 16.0406C9.33149 16.0407 9.33146 16.0407 9.33142 16.0407C9.01439 16.3502 8.5195 16.3443 8.20866 16.0298L8.20864 16.0298C7.87656 15.6937 7.91198 15.1416 8.24363 14.8177L8.24375 14.8176L15.3018 7.93538C15.5031 7.73915 15.4999 7.429 15.2938 7.23644L14.1712 6.18742L14.3419 6.00476L14.1712 6.18742C13.9586 5.98873 13.6131 5.99245 13.4053 6.19506L6.34663 13.0778L12.4925 1.59377ZM12.4925 1.59377L12.6671 1.77265C14.7462 -0.25746 18.1286 -0.257637 20.2079 1.77265L20.3826 1.59377L20.2079 1.77265C22.2628 3.77902 22.2653 7.01278 20.208 9.0215C20.208 9.02153 20.2079 9.02156 20.2079 9.02158L11.2288 17.7802L11.2287 17.7803M12.4925 1.59377L11.2287 17.7803M11.2287 17.7803C9.8609 19.1157 7.62301 19.097 6.27848 17.7366L6.10067 17.9124M11.2287 17.7803L6.10067 17.9124M6.10067 17.9124L6.27848 17.7366C4.98984 16.4328 5.02816 14.3653 6.34651 13.0779L6.10067 17.9124Z" fill="#91919C" stroke="white" stroke-width="0.5"/>
</svg>
