<svg width="21" height="22" viewBox="0 0 21 22" fill="none" xmlns="http://www.w3.org/2000/svg">
<path d="M6.64844 11.9375H4.85156C4.55508 11.9375 4.3125 11.6949 4.3125 11.3984V9.60156C4.3125 9.30508 4.55508 9.0625 4.85156 9.0625H6.64844C6.94492 9.0625 7.1875 9.30508 7.1875 9.60156V11.3984C7.1875 11.6949 6.94492 11.9375 6.64844 11.9375ZM11.5 11.3984V9.60156C11.5 9.30508 11.2574 9.0625 10.9609 9.0625H9.16406C8.86758 9.0625 8.625 9.30508 8.625 9.60156V11.3984C8.625 11.6949 8.86758 11.9375 9.16406 11.9375H10.9609C11.2574 11.9375 11.5 11.6949 11.5 11.3984ZM15.8125 11.3984V9.60156C15.8125 9.30508 15.5699 9.0625 15.2734 9.0625H13.4766C13.1801 9.0625 12.9375 9.30508 12.9375 9.60156V11.3984C12.9375 11.6949 13.1801 11.9375 13.4766 11.9375H15.2734C15.5699 11.9375 15.8125 11.6949 15.8125 11.3984ZM11.5 15.7109V13.9141C11.5 13.6176 11.2574 13.375 10.9609 13.375H9.16406C8.86758 13.375 8.625 13.6176 8.625 13.9141V15.7109C8.625 16.0074 8.86758 16.25 9.16406 16.25H10.9609C11.2574 16.25 11.5 16.0074 11.5 15.7109ZM7.1875 15.7109V13.9141C7.1875 13.6176 6.94492 13.375 6.64844 13.375H4.85156C4.55508 13.375 4.3125 13.6176 4.3125 13.9141V15.7109C4.3125 16.0074 4.55508 16.25 4.85156 16.25H6.64844C6.94492 16.25 7.1875 16.0074 7.1875 15.7109ZM15.8125 15.7109V13.9141C15.8125 13.6176 15.5699 13.375 15.2734 13.375H13.4766C13.1801 13.375 12.9375 13.6176 12.9375 13.9141V15.7109C12.9375 16.0074 13.1801 16.25 13.4766 16.25H15.2734C15.5699 16.25 15.8125 16.0074 15.8125 15.7109ZM20.125 5.03125V19.8438C20.125 21.0342 19.1592 22 17.9688 22H2.15625C0.96582 22 0 21.0342 0 19.8438V5.03125C0 3.84082 0.96582 2.875 2.15625 2.875H4.3125V0.539062C4.3125 0.242578 4.55508 0 4.85156 0H6.64844C6.94492 0 7.1875 0.242578 7.1875 0.539062V2.875H12.9375V0.539062C12.9375 0.242578 13.1801 0 13.4766 0H15.2734C15.5699 0 15.8125 0.242578 15.8125 0.539062V2.875H17.9688C19.1592 2.875 20.125 3.84082 20.125 5.03125ZM17.9688 19.5742V5.1875H2.15625V19.5742C2.15625 19.7225 2.27754 19.8438 2.42578 19.8438H17.6992C17.8475 19.8438 17.9688 19.7225 17.9688 19.5742Z" fill="#91919C"/>
</svg>
