<svg width="26" height="25" viewBox="0 0 26 25" fill="none" xmlns="http://www.w3.org/2000/svg">
<path d="M15.8691 24H21.0031C21.577 24 22.0602 23.5119 22.0602 22.9324V13.3236H23.9326C24.3856 13.3236 24.748 13.0491 24.9292 12.6525C25.0802 12.2255 24.9896 11.7679 24.6574 11.4629L13.7248 1.27454C13.3322 0.908488 12.698 0.908488 12.2752 1.27454L1.34259 11.4629C1.01038 11.7679 0.91978 12.2255 1.07078 12.6525C1.22179 13.0796 1.61439 13.3236 2.0674 13.3236H3.93983V22.9324C3.93983 23.5119 4.42304 24 4.99685 24H10.1309C10.7048 24 11.188 23.5119 11.188 22.9324V16.4045H14.812V22.9324C14.812 23.5119 15.2952 24 15.8691 24ZM11.037 15.1844C10.4632 15.1844 9.97995 15.6724 9.97995 16.252V22.7798H5.14786V13.1711C5.14786 12.5915 4.66465 12.1034 4.09084 12.1034H2.42981L13 2.25066L23.5702 12.1034H21.9092C21.3354 12.1034 20.8521 12.5915 20.8521 13.1711V22.7798H16.0201V16.252C16.0201 15.6724 15.5368 15.1844 14.963 15.1844H11.037Z" fill="#91919C" stroke="#91919C" stroke-width="0.8"/>
</svg>
