<svg width="34" height="42" viewBox="0 0 34 42" fill="none" xmlns="http://www.w3.org/2000/svg">
<mask id="path-1-inside-1_1_26" fill="white">
<path d="M4.78125 31.5V7.34999H19.6562V11.025C19.6562 11.0939 19.67 11.1622 19.6967 11.2259C19.7234 11.2896 19.7625 11.3475 19.8118 11.3962C19.8612 11.445 19.9197 11.4836 19.9842 11.51C20.0487 11.5364 20.1177 11.55 20.1875 11.55H23.9062V31.5H4.78125ZM20.7188 8.09247L23.1549 10.5H20.7188V8.09247Z"/>
</mask>
<path d="M6.90625 6.29999V5.54999V6.29999ZM4.25 6.29999L4.24998 7.04999H4.25V6.29999ZM3.71875 6.82499H4.46875V6.82497L3.71875 6.82499ZM3.71875 32.025L4.46875 32.025V32.025H3.71875ZM4.25 32.55V31.8H4.24998L4.25 32.55ZM24.4375 32.55L24.4375 31.8H24.4375V32.55ZM24.9688 32.025H24.2188V32.025L24.9688 32.025ZM24.9688 11.025L24.2188 11.025V11.025H24.9688ZM24.8131 10.6538L24.286 11.1872L24.286 11.1873L24.8131 10.6538ZM20.5631 6.45377L20.0359 6.98718L20.036 6.98723L20.5631 6.45377ZM20.1875 6.29999V7.04999H20.1875L20.1875 6.29999ZM6.90625 5.54999H4.25V7.04999H6.90625V5.54999ZM4.25002 5.54999C4.08298 5.54999 3.91738 5.58249 3.76258 5.64585L4.33081 7.03406C4.30492 7.04465 4.27748 7.04999 4.24998 7.04999L4.25002 5.54999ZM3.76258 5.64585C3.60777 5.70922 3.46653 5.80233 3.34716 5.9203L4.40153 6.98722C4.38082 7.00768 4.35671 7.02345 4.33081 7.03406L3.76258 5.64585ZM3.34716 5.9203C3.22777 6.03829 3.13259 6.17884 3.06748 6.33417L4.45089 6.91399C4.43918 6.94193 4.42226 6.96673 4.40153 6.98722L3.34716 5.9203ZM3.06748 6.33417C3.00237 6.48952 2.96875 6.65633 2.96875 6.82501L4.46875 6.82497C4.46875 6.85576 4.4626 6.88604 4.45089 6.91399L3.06748 6.33417ZM2.96875 6.82499V32.025H4.46875V6.82499H2.96875ZM2.96875 32.025C2.96875 32.1936 3.00237 32.3605 3.06748 32.5158L4.45089 31.936C4.4626 31.9639 4.46875 31.9942 4.46875 32.025L2.96875 32.025ZM3.06748 32.5158C3.13259 32.6711 3.22777 32.8117 3.34716 32.9297L4.40153 31.8628C4.42226 31.8832 4.43918 31.908 4.45089 31.936L3.06748 32.5158ZM3.34716 32.9297C3.46654 33.0476 3.60778 33.1408 3.76258 33.2041L4.33081 31.8159C4.3567 31.8265 4.38081 31.8423 4.40153 31.8628L3.34716 32.9297ZM3.76258 33.2041C3.91737 33.2675 4.08297 33.3 4.25002 33.3L4.24998 31.8C4.2775 31.8 4.30494 31.8053 4.33081 31.8159L3.76258 33.2041ZM4.25 33.3H24.4375V31.8H4.25V33.3ZM24.4375 33.3C24.6045 33.3 24.7701 33.2675 24.9249 33.2041L24.3567 31.8159C24.3826 31.8053 24.41 31.8 24.4375 31.8L24.4375 33.3ZM24.9249 33.2041C25.0797 33.1408 25.221 33.0477 25.3403 32.9297L24.286 31.8628C24.3067 31.8423 24.3308 31.8265 24.3567 31.8159L24.9249 33.2041ZM25.3403 32.9297C25.4597 32.8117 25.5549 32.6711 25.62 32.5158L24.2366 31.936C24.2483 31.908 24.2652 31.8832 24.286 31.8628L25.3403 32.9297ZM25.62 32.5158C25.6851 32.3605 25.7188 32.1936 25.7188 32.025L24.2188 32.025C24.2188 31.9942 24.2249 31.9639 24.2366 31.936L25.62 32.5158ZM25.7188 32.025V30.45H24.2188V32.025H25.7188ZM25.7188 30.45V11.025H24.2188V30.45H25.7188ZM25.7188 11.025C25.7188 10.8563 25.6851 10.6895 25.62 10.5341L24.2366 11.114C24.2249 11.0861 24.2188 11.0558 24.2188 11.025L25.7188 11.025ZM25.62 10.5341C25.5549 10.3788 25.4597 10.2382 25.3403 10.1203L24.286 11.1873C24.2653 11.1668 24.2483 11.142 24.2366 11.114L25.62 10.5341ZM25.3403 10.1203L21.0903 5.92031L20.036 6.98723L24.286 11.1872L25.3403 10.1203ZM21.0904 5.92035C20.971 5.80237 20.8298 5.70924 20.6749 5.64586L20.1067 7.03405C20.0807 7.02344 20.0566 7.00766 20.0359 6.98718L21.0904 5.92035ZM20.6749 5.64586C20.5201 5.58249 20.3545 5.54999 20.1875 5.54999L20.1875 7.04999C20.16 7.04999 20.1326 7.04465 20.1067 7.03405L20.6749 5.64586ZM20.1875 5.54999H6.90625V7.04999H20.1875V5.54999ZM4.78125 31.5H3.28125V33H4.78125V31.5ZM4.78125 7.34999V5.84999H3.28125V7.34999H4.78125ZM19.6562 7.34999H21.1562V5.84999H19.6562V7.34999ZM19.6562 11.025L21.1562 11.025V11.025H19.6562ZM20.1875 11.55V10.05H20.1875L20.1875 11.55ZM23.9062 11.55H25.4062V10.05H23.9062V11.55ZM23.9062 31.5V33H25.4062V31.5H23.9062ZM20.7188 8.09247L21.7731 7.02555L19.2188 4.50124V8.09247H20.7188ZM23.1549 10.5V12H26.8068L24.2093 9.43307L23.1549 10.5ZM20.7188 10.5H19.2188V12H20.7188V10.5ZM6.28125 31.5V7.34999H3.28125V31.5H6.28125ZM4.78125 8.84999H19.6562V5.84999H4.78125V8.84999ZM18.1562 7.34999V11.025H21.1562V7.34999H18.1562ZM18.1562 11.0249C18.1562 11.2934 18.2098 11.5587 18.3133 11.8057L21.0801 10.6461C21.1302 10.7657 21.1563 10.8945 21.1562 11.025L18.1562 11.0249ZM18.3133 11.8057C18.4168 12.0527 18.568 12.2759 18.7575 12.4631L20.8662 10.3293C20.957 10.419 21.03 10.5265 21.0801 10.6461L18.3133 11.8057ZM18.7575 12.4631C18.9469 12.6503 19.1708 12.7979 19.416 12.8982L20.5524 10.1218C20.6687 10.1694 20.7755 10.2396 20.8662 10.3293L18.7575 12.4631ZM19.416 12.8982C19.6611 12.9986 19.9232 13.05 20.1875 13.05L20.1875 10.05C20.3122 10.05 20.4362 10.0742 20.5524 10.1218L19.416 12.8982ZM20.1875 13.05H23.9062V10.05H20.1875V13.05ZM22.4062 11.55V31.5H25.4062V11.55H22.4062ZM23.9062 30H4.78125V33H23.9062V30ZM19.6644 9.15939L22.1006 11.5669L24.2093 9.43307L21.7731 7.02555L19.6644 9.15939ZM23.1549 8.99999H20.7188V12H23.1549V8.99999ZM22.2188 10.5V8.09247H19.2188V10.5H22.2188Z" fill="#91919C" mask="url(#path-1-inside-1_1_26)"/>
<path d="M12.0356 12.8333H9.37933V13.8833H12.0356V12.8333Z" fill="#91919C"/>
<path d="M12.2188 15.75H9.03125V16.8H12.2188V15.75Z" fill="#91919C"/>
<path d="M19.6562 15.75H13.2812V16.8H19.6562V15.75Z" fill="#91919C"/>
<path d="M12.75 26.25H9.03125V27.3H12.75V26.25Z" fill="#91919C"/>
<path d="M19.6562 26.25H13.8125V27.3H19.6562V26.25Z" fill="#91919C"/>
<path d="M11.1562 18.375H9.03125V19.425H11.1562V18.375Z" fill="#91919C"/>
<path d="M17 18.375H12.2188V19.425H17V18.375Z" fill="#91919C"/>
<path d="M19.6562 18.375H18.0625V19.425H19.6562V18.375Z" fill="#91919C"/>
<path d="M19.6562 23.625H17.5312V24.675H19.6562V23.625Z" fill="#91919C"/>
<path d="M16.4688 23.625H11.6875V24.675H16.4688V23.625Z" fill="#91919C"/>
<path d="M10.625 23.625H9.03125V24.675H10.625V23.625Z" fill="#91919C"/>
<path d="M12.2188 21H9.03125V22.05H12.2188V21Z" fill="#91919C"/>
<path d="M19.6562 21H13.2812V22.05H19.6562V21Z" fill="#91919C"/>
<path d="M17.4579 12.8333H13.2079V13.8833H17.4579V12.8333Z" fill="#91919C"/>
</svg>
