<svg width="22" height="21" viewBox="0 0 22 21" fill="none" xmlns="http://www.w3.org/2000/svg">
<path d="M6.5625 1.69219V3.00469H1V1.69219C1 1.48313 1.07693 1.29826 1.19022 1.17467C1.30085 1.05399 1.4313 1.00469 1.54688 1.00469H6.01562C6.1312 1.00469 6.26165 1.05399 6.37228 1.17467C6.48557 1.29826 6.5625 1.48313 6.5625 1.69219ZM21 1.6875V3H15.4375V1.6875C15.4375 1.47844 15.5144 1.29357 15.6277 1.16998C15.7383 1.0493 15.8688 1 15.9844 1H20.4531C20.5687 1 20.6992 1.0493 20.8098 1.16998C20.9231 1.29357 21 1.47844 21 1.6875ZM1.00718 6.50469H6.5625V8.50469C6.5625 11.9073 8.59219 14.003 10.9993 14.0047C13.4079 14.0063 15.4375 11.9115 15.4375 8.50469V6.50469H20.9891C20.9889 6.52198 20.9887 6.53928 20.9886 6.55657C20.9804 7.31343 20.9723 8.06486 20.9935 8.5861C20.9824 15.048 15.6993 19.1297 11.0365 19.1297C6.36477 19.1297 1.01544 15.0394 1.00431 8.59047C1.02266 8.13338 1.01686 7.52913 1.01057 6.87283C1.0094 6.75169 1.00822 6.62878 1.00718 6.50469Z" stroke="#91919C" stroke-width="2"/>
</svg>
