<svg width="22" height="21" viewBox="0 0 22 21" fill="none" xmlns="http://www.w3.org/2000/svg">
<path d="M4.65 19.6875C4.65 19.9064 4.45294 20.15 4.125 20.15H1.375C1.04706 20.15 0.85 19.9064 0.85 19.6875V9.1875C0.85 8.96862 1.04706 8.725 1.375 8.725H4.125C4.45294 8.725 4.65 8.96862 4.65 9.1875V19.6875ZM12.9 19.6875C12.9 19.9064 12.7029 20.15 12.375 20.15H9.625C9.29706 20.15 9.1 19.9064 9.1 19.6875V1.3125C9.1 1.09362 9.29706 0.85 9.625 0.85H12.375C12.7029 0.85 12.9 1.09362 12.9 1.3125V19.6875ZM21.15 19.6875C21.15 19.9064 20.9529 20.15 20.625 20.15H17.875C17.5471 20.15 17.35 19.9064 17.35 19.6875V14.4375C17.35 14.2186 17.5471 13.975 17.875 13.975H20.625C20.9529 13.975 21.15 14.2186 21.15 14.4375V19.6875Z" stroke="#91919C" stroke-width="1.7"/>
</svg>
