<svg width="15" height="17" viewBox="0 0 15 17" fill="none" xmlns="http://www.w3.org/2000/svg">
<path d="M14.5869 4.71586L13.2362 6.24659C13.0985 6.40265 12.8759 6.40265 12.7382 6.24659L9.48607 2.56089C9.34837 2.40483 9.34837 2.15248 9.48607 1.99642L10.8367 0.465692C11.3846 -0.155231 12.2753 -0.155231 12.8261 0.465692L14.5869 2.46128C15.1377 3.0822 15.1377 4.09162 14.5869 4.71586ZM8.32586 3.31131L0.632148 12.0308L0.0110251 16.0651C-0.0739398 16.6097 0.345025 17.0812 0.825516 16.9882L4.38525 16.281L12.079 7.56148C12.2167 7.40542 12.2167 7.15307 12.079 6.99701L8.82686 3.31131C8.68623 3.15525 8.46357 3.15525 8.32586 3.31131ZM3.63522 11.2837C3.47408 11.1011 3.47408 10.8089 3.63522 10.6263L8.14714 5.51277C8.30828 5.33014 8.56611 5.33014 8.72725 5.51277C8.88839 5.69539 8.88839 5.98759 8.72725 6.17022L4.21532 11.2837C4.05418 11.4663 3.79636 11.4663 3.63522 11.2837ZM2.57755 14.0762H3.98387V15.2815L2.09413 15.6567L1.18295 14.6241L1.51402 12.4824H2.57755V14.0762Z" fill="white"/>
</svg>
