<svg width="21" height="22" viewBox="0 0 21 22" fill="none" xmlns="http://www.w3.org/2000/svg">
<path d="M10.0695 22C11.7297 22 13.1184 20.8165 13.4373 19.25H6.70166C7.02074 20.8165 8.4095 22 10.0695 22Z" fill="#979797"/>
<path d="M18.7126 16.9606L18.7127 16.9604C18.7975 16.5512 18.6542 16.1452 18.3338 15.8757C17.0097 14.7657 16.2002 13.1815 16.0285 11.485C12.4275 11.2487 9.56952 8.24399 9.56952 4.58337C9.56952 3.79464 9.70586 3.03884 9.95128 2.33453C6.73824 2.39752 4.15291 5.02173 4.15291 8.24998V10.8056C4.15291 12.7669 3.29333 14.6184 1.78771 15.8918C1.46909 16.1645 1.32651 16.5982 1.44226 17.0266L18.7126 16.9606ZM18.7126 16.9606C18.6104 17.4544 18.1132 17.8334 17.5266 17.8334H2.6079C2.04874 17.8334 1.56774 17.4895 1.44231 17.0268L18.7126 16.9606Z" fill="#979797" stroke="#979797"/>
<path d="M21.0001 4.50008C21.0001 6.98537 18.9854 9 16.5 9C14.0147 9 12.0001 6.98537 12.0001 4.50008C12.0001 2.0148 14.0147 0 16.5 0C18.9854 0 21.0001 2.0148 21.0001 4.50008Z" fill="#D95E54"/>
</svg>
