<svg width="17" height="17" viewBox="0 0 17 17" fill="none" xmlns="http://www.w3.org/2000/svg">
<path d="M16.7829 10.5427L15.2577 9.69959C15.4116 8.90443 15.4116 8.08871 15.2577 7.29355L16.7829 6.45041C16.9583 6.35444 17.0371 6.15565 16.9798 5.97057C16.5824 4.75042 15.9057 3.64679 15.0214 2.72825C14.8853 2.58772 14.6633 2.55345 14.4915 2.64942L12.9663 3.49256C12.3254 2.96474 11.5879 2.55688 10.7894 2.28954V0.606683C10.7894 0.414748 10.6498 0.246805 10.4529 0.205676C9.13893 -0.0753708 7.79274 -0.0616612 6.54321 0.205676C6.3463 0.246805 6.20667 0.414748 6.20667 0.606683V2.29297C5.41184 2.56373 4.6743 2.97159 4.02984 3.49599L2.50822 2.65284C2.33278 2.55688 2.11438 2.58772 1.97833 2.73168C1.094 3.64679 0.417324 4.75042 0.0199107 5.974C-0.0409543 6.15908 0.0413925 6.35787 0.216827 6.45384L1.74203 7.29698C1.58808 8.09214 1.58808 8.90786 1.74203 9.70302L0.216827 10.5462C0.0413925 10.6421 -0.037374 10.8409 0.0199107 11.026C0.417324 12.2462 1.094 13.3498 1.97833 14.2683C2.11438 14.4088 2.33636 14.4431 2.50822 14.3472L4.03342 13.504C4.6743 14.0318 5.41184 14.4397 6.21025 14.707V16.3933C6.21025 16.5853 6.34988 16.7532 6.54679 16.7943C7.86076 17.0754 9.20695 17.0617 10.4565 16.7943C10.6534 16.7532 10.793 16.5853 10.793 16.3933V14.707C11.5879 14.4363 12.3254 14.0284 12.9698 13.504L14.4951 14.3472C14.6705 14.4431 14.8889 14.4123 15.0249 14.2683C15.9093 13.3532 16.5859 12.2496 16.9834 11.026C17.0371 10.8375 16.9583 10.6387 16.7829 10.5427ZM8.49806 11.2385C6.91914 11.2385 5.63382 10.0081 5.63382 8.49657C5.63382 6.98509 6.91914 5.75465 8.49806 5.75465C10.077 5.75465 11.3623 6.98509 11.3623 8.49657C11.3623 10.0081 10.077 11.2385 8.49806 11.2385Z" fill="white"/>
</svg>
