<svg width="15" height="17" viewBox="0 0 15 17" fill="none" xmlns="http://www.w3.org/2000/svg">
<path d="M11.7857 10.625C11.0287 10.625 10.333 10.8846 9.78382 11.3188L6.35237 9.19199C6.45398 8.73615 6.45398 8.26381 6.35237 7.80798L9.78382 5.68119C10.333 6.11539 11.0287 6.375 11.7857 6.375C13.5609 6.375 15 4.9479 15 3.1875C15 1.4271 13.5609 0 11.7857 0C10.0105 0 8.57143 1.4271 8.57143 3.1875C8.57143 3.42517 8.59788 3.65666 8.64763 3.87949L5.21618 6.00628C4.66698 5.57212 3.97125 5.3125 3.21429 5.3125C1.4391 5.3125 0 6.7396 0 8.5C0 10.2604 1.4391 11.6875 3.21429 11.6875C3.97125 11.6875 4.66698 11.4279 5.21618 10.9937L8.64763 13.1205C8.59691 13.3477 8.57136 13.5798 8.57143 13.8125C8.57143 15.5729 10.0105 17 11.7857 17C13.5609 17 15 15.5729 15 13.8125C15 12.0521 13.5609 10.625 11.7857 10.625Z" fill="white"/>
</svg>
